<?xml version="1.0" encoding="UTF-8" standalone="no"?>
<!DOCTYPE svg PUBLIC "-//W3C//DTD SVG 1.1//EN" "http://www.w3.org/Graphics/SVG/1.1/DTD/svg11.dtd">
<svg width="100%" height="100%" viewBox="0 0 1500 1500" version="1.1" xmlns="http://www.w3.org/2000/svg" xmlns:xlink="http://www.w3.org/1999/xlink" xml:space="preserve" xmlns:serif="http://www.serif.com/" style="fill-rule:evenodd;clip-rule:evenodd;stroke-linejoin:round;stroke-miterlimit:2;">
    <g transform="matrix(1,0,0,1,-750.582031,-750.789062)">
        <path d="M1531.852,918.66C1522.699,868.551 1512.512,812.82 1500.57,750.789C1488.602,812.98 1478.441,868.578 1469.32,918.551C1427.441,1147.852 1406.48,1262.531 1334.398,1334.609C1262.441,1406.57 1148.031,1427.578 919.492,1469.32L918.457,1469.52C868.344,1478.672 812.609,1488.859 750.582,1500.801C812.773,1512.781 868.367,1522.941 918.344,1532.059C1147.641,1573.93 1262.32,1594.891 1334.398,1666.969C1406.371,1738.93 1427.371,1853.34 1469.109,2081.883L1469.32,2082.914C1478.469,2133.027 1488.648,2188.762 1500.59,2250.789C1512.57,2188.598 1522.73,2133.004 1531.852,2083.027C1573.73,1853.73 1594.68,1739.051 1666.762,1666.969C1738.719,1595.012 1853.129,1574 2081.672,1532.262L2082.711,1532.059C2132.82,1522.91 2188.559,1512.719 2250.578,1500.781C2188.391,1488.801 2132.801,1478.641 2082.82,1469.52C1853.52,1427.648 1738.84,1406.691 1666.762,1334.609C1594.801,1262.648 1573.801,1148.238 1532.051,919.699L1531.852,918.66" style="fill:white;fill-rule:nonzero;"/>
    </g>
</svg>
